<?xml version="1.0" encoding="UTF-8"?>
<svg id="Layer_1" data-name="Layer 1" xmlns="http://www.w3.org/2000/svg" viewBox="0 0 125 75">
  <path d="M15.08,29.42l1.01,1.56c-.7.67-1.27,1.18-1.69,1.53s-.76.54-1.02.57c-.25.04-.48-.07-.69-.33-.19-.23-.24-.49-.14-.76.1-.27.35-.61.76-1.02s1-.92,1.76-1.55ZM19.63,32.93c-.99,0-1.87-.15-2.64-.46-.77-.31-1.43-.71-1.97-1.2-.54-.49-.95-1.02-1.23-1.59s-.42-1.1-.42-1.61c0-.36.09-.62.26-.79.17-.17.38-.25.63-.25.27,0,.49.07.64.21.15.14.29.37.43.71.13.32.33.7.6,1.14.27.44.65.83,1.14,1.17.49.34,1.12.5,1.89.5.66,0,1.19-.2,1.6-.6.4-.4.6-.95.6-1.66,0-.61-.13-1.14-.38-1.57-.25-.44-.59-.83-1.02-1.17-.42-.34-.89-.67-1.39-1-.5-.33-1.01-.68-1.51-1.06s-.97-.83-1.39-1.35c-.42-.52-.76-1.15-1.02-1.88-.25-.73-.38-1.62-.38-2.66,0-1.22.26-2.33.77-3.32.51-.99,1.28-1.77,2.29-2.35,1.01-.58,2.26-.87,3.75-.87.78,0,1.48.08,2.09.23.61.15,1.13.36,1.57.61.43.25.76.53.98.84.23.31.34.61.34.92,0,.34-.08.6-.23.8-.15.2-.39.3-.72.3-.28,0-.55-.08-.79-.23-.24-.15-.51-.33-.81-.53-.29-.2-.66-.38-1.09-.53-.43-.15-.99-.23-1.67-.23-1.2,0-2.12.3-2.75.91-.63.61-.95,1.36-.95,2.27,0,.75.18,1.36.55,1.82.37.46.86.83,1.47,1.11.61.28,1.28.53,2,.75.72.22,1.45.47,2.17.74s1.39.63,2,1.07,1.1,1.02,1.47,1.73c.37.72.55,1.64.55,2.77s-.2,2.08-.6,2.88c-.4.8-.95,1.45-1.64,1.96s-1.48.88-2.38,1.12c-.89.24-1.83.36-2.8.36ZM16.21,30.55s.04-.04.05-.07c.02-.03.03-.04.04-.05.09-.12.23-.18.42-.16.19.02.36.08.53.19.17.09.3.21.39.36.09.15.09.29,0,.44-.01.03-.03.07-.06.11-.03.04-.06.08-.09.11-.11.15-.24.25-.39.29-.15.04-.29.04-.44-.02-.14-.05-.27-.13-.37-.24-.08-.08-.14-.18-.19-.28s-.06-.22-.05-.33.06-.22.15-.34ZM17.18,31.86l1.53.58c-.26.93-.49,1.65-.69,2.15-.19.51-.4.84-.62.99-.22.15-.5.16-.83.03-.3-.11-.46-.31-.5-.59s.04-.67.24-1.18c.19-.51.48-1.17.87-1.99ZM20.06,32.35l1.59-.27c.21,1.17.35,2.06.41,2.66.06.6.03,1.01-.08,1.24-.11.22-.32.36-.61.41-.36.06-.62-.02-.78-.23-.16-.21-.28-.62-.34-1.23-.07-.61-.13-1.46-.19-2.57ZM21.07,24.19c.34,0,.58-.09.73-.27s.22-.43.22-.74c0-.21-.08-.4-.24-.56-.16-.16-.38-.24-.64-.24s-.5.07-.67.21c-.17.14-.25.35-.25.61,0,.31.07.55.22.72.15.17.36.26.63.26ZM21.98,18.45c-.53,0-.93-.13-1.21-.4-.28-.26-.41-.58-.41-.95,0-.49.12-.88.37-1.16.25-.28.57-.43.97-.43.55,0,.95.13,1.21.38.25.25.38.54.38.87,0,.58-.11,1.01-.34,1.28-.23.27-.55.4-.97.4ZM22.53,31.43l1.28-.89c.7.93,1.23,1.66,1.58,2.19.35.53.53.95.54,1.24s-.14.53-.44.73c-.3.18-.57.2-.83.05s-.55-.49-.88-1.03c-.33-.54-.75-1.3-1.26-2.29ZM23.85,26.51c.29,0,.54-.1.74-.29.2-.19.3-.44.3-.75,0-.43-.1-.74-.3-.95-.2-.2-.43-.31-.71-.31-.44,0-.76.09-.97.27-.21.18-.31.5-.31.95,0,.32.11.57.32.77.21.2.53.3.93.3ZM23.75,29.72c.69,0,1.04-.34,1.04-1.01,0-.26-.08-.47-.24-.63-.16-.15-.4-.23-.7-.23s-.55.07-.7.21c-.15.14-.22.38-.22.7s.08.55.25.71c.17.16.36.24.57.24Z" fill="#1b2470" stroke-width="0"/>
  <path d="M28.8,29.91c.09-.74.23-1.83.4-3.26.18-1.43.38-2.95.59-4.56.02-.12.04-.24.05-.36s.03-.24.05-.36c.02-.12.03-.24.04-.37.02-.17.04-.34.07-.5s.05-.33.07-.49c.02-.21.05-.43.08-.63.03-.21.06-.41.09-.62.03-.22.06-.44.08-.66.03-.21.05-.42.08-.63.03-.2.06-.41.09-.61.03-.2.06-.4.08-.6.09-.67.18-1.28.25-1.83s.14-1.01.21-1.39c.14-.89.42-1.54.83-1.95s.94-.62,1.58-.62,1.18.23,1.57.68c.38.45.69,1.1.91,1.95.03.09.06.19.09.28s.05.19.06.27c-1.26.22-2.11.46-2.54.72s-.61.61-.54,1.05c.08.46.42.67,1.01.65.59-.03,1.47-.19,2.63-.5.09.29.18.59.26.91.08.32.16.65.23.99-1.53.18-2.6.39-3.22.62-.62.23-.9.58-.84,1.06.08.52.47.77,1.15.76s1.8-.27,3.34-.76c.26,1.09.52,2.17.76,3.23.24,1.06.5,2.05.76,2.97.15.51.38.76.67.76.33,0,.55-.26.67-.79.23-.98.48-2.08.73-3.3.25-1.22.51-2.46.77-3.73.26-1.26.51-2.44.76-3.54.28-1.25.67-2.12,1.18-2.61.51-.48,1.15-.73,1.91-.73s1.4.26,1.81.79c.41.53.69,1.32.82,2.38.32,2.49.61,5.13.89,7.92.28,2.8.53,5.59.76,8.4.06.74-.05,1.32-.33,1.72-.28.4-.71.6-1.29.6s-1.01-.19-1.28-.57c-.28-.38-.42-.92-.43-1.63-.02-1.43-.01-2.76.03-4,.04-1.24.04-2.5,0-3.8-.02-.78-.26-1.23-.71-1.33s-.87.14-1.24.72c-.54.84-1.06,1.7-1.57,2.58s-1.07,1.81-1.7,2.77c-.22.34-.49.6-.8.79s-.68.28-1.09.28-.77-.11-1.1-.34c-.33-.22-.64-.53-.95-.92-.67-.87-1.31-1.73-1.91-2.59-.6-.86-1.15-1.59-1.64-2.18-.43-.52-.84-.73-1.24-.63-.4.1-.61.48-.63,1.15-.02.6-.04,1.28-.07,2.03-.03.75-.06,1.53-.09,2.33s-.07,1.58-.11,2.33c-.03.67-.17,1.18-.43,1.53-.25.35-.65.52-1.19.52-.39,0-.7-.09-.93-.27s-.4-.45-.49-.8c-.09-.36-.11-.79-.05-1.31ZM39.74,28.04c-.31,0-.55-.08-.73-.24-.18-.16-.27-.39-.27-.71,0-.26.09-.48.27-.64.18-.16.43-.24.73-.24.23,0,.43.09.59.26.16.17.24.36.24.57,0,.35-.09.6-.26.76-.17.16-.36.24-.57.24ZM45.3,19.12c.66,0,1.14-.15,1.43-.44.29-.3.44-.69.44-1.18s-.15-.87-.44-1.17c-.29-.3-.72-.45-1.31-.45-.44,0-.8.15-1.08.46s-.42.71-.42,1.22.14.88.41,1.15c.28.27.6.4.96.4ZM48.96,31.04h-.64c-.18,0-.35-.06-.5-.18s-.23-.39-.23-.79c0-.36.1-.59.3-.71.2-.12.36-.18.5-.18h.58c.26.01.46.12.6.33.13.21.2.44.2.68,0,.31-.07.52-.2.66-.13.13-.33.2-.6.2Z" fill="#1b2470" stroke-width="0"/>
  <path d="M52.72,30.82c.11-1.35.24-2.86.37-4.51.14-1.65.28-3.33.42-5.03.01-.1.02-.2.03-.31.01-.1.02-.2.03-.31l.03-.31c.01-.12.02-.24.03-.36,0-.12.02-.24.03-.36.01-.12.02-.24.03-.35.02-.19.04-.38.05-.57s.03-.38.05-.57c.02-.17.04-.35.05-.52.02-.17.03-.34.04-.5.02-.18.04-.36.05-.54.02-.18.03-.35.04-.51.02-.12.03-.24.05-.37,0-.12.02-.24.03-.35.08-.81.31-1.41.68-1.79s.95-.68,1.73-.9c.46-.13,1.01-.27,1.64-.41s1.29-.28,1.97-.4c.68-.13,1.3-.23,1.86-.31.56-.08.99-.11,1.3-.11.9,0,1.55.28,1.97.85.42.57.63,1.32.63,2.25,0,.79-.13,1.53-.38,2.2-.25.67-.61,1.18-1.09,1.54s-1.06.44-1.76.27c.21-.78.39-1.49.54-2.11.15-.62.18-1.11.1-1.47-.08-.36-.36-.54-.84-.54-.44,0-.74.3-.92.89-.17.59-.37,1.55-.6,2.87-.28-.08-.53-.15-.76-.21-.24-.06-.5-.12-.79-.19.09-1.31.1-2.2.02-2.67s-.34-.7-.79-.7c-.29,0-.5.08-.64.25-.14.17-.24.46-.28.86-.05.41-.06.96-.05,1.67-.09-.03-.18-.05-.27-.07s-.18-.02-.27-.02c-.26,0-.44.07-.56.21-.12.14-.19.35-.21.61-.06,1.04-.1,2.09-.12,3.14s-.03,2.09-.03,3.09c0,.29.1.49.31.63.21.13.51.14.91.01.92-.29,1.72-.54,2.41-.75.69-.2,1.21-.35,1.56-.44.49-.12.88-.04,1.16.24.29.29.43.62.43,1.01,0,.26-.08.52-.24.76-.16.24-.43.4-.79.5-.13.03-.27.06-.4.1-.14.04-.28.07-.42.1-.08.02-.16.04-.24.06-.08.02-.16.04-.24.06-.07.01-.14.02-.2.04s-.12.03-.18.05c-.1.02-.2.04-.29.07-.09.03-.19.05-.29.07-.04.01-.08.02-.13.03s-.09.02-.14.03c-.05.01-.09.02-.14.03s-.1.02-.14.03-.09.02-.14.04-.1.03-.15.04c-.14.03-.28.06-.42.1-.14.04-.27.07-.39.1-.34.08-.55.2-.63.35s-.11.35-.07.6c.05.29.13.65.23,1.11.1.45.22.85.35,1.18.11.27.25.44.41.5.16.06.37.05.63-.05.67-.26,1.42-.56,2.25-.87.83-.32,1.5-.53,2.02-.66.62-.14,1.09-.03,1.41.34.32.37.47.79.47,1.25,0,.35-.09.66-.26.95-.17.29-.44.46-.79.52-1.25.21-2.64.42-4.17.62-1.53.2-3.02.34-4.48.42-.87.04-1.53-.14-2-.53s-.67-1.05-.6-1.97ZM55.87,14.99l-.15,1.22c-.25-.03-.44-.1-.56-.21-.12-.11-.18-.28-.17-.49.02-.24.12-.39.29-.44.17-.05.37-.08.6-.08ZM59.08,22.33c-.53,0-.92-.11-1.18-.34-.25-.22-.38-.64-.38-1.25,0-.3.13-.57.38-.83.25-.26.57-.39.93-.39.52,0,.9.12,1.14.35.24.23.36.6.36,1.08s-.12.82-.35,1.04c-.23.22-.53.34-.9.34ZM58.22,31.13l1.99-.06c.06.32.08.59.05.83-.03.24-.1.43-.24.58-.13.15-.33.24-.58.27-.29.04-.51,0-.69-.14-.17-.13-.3-.33-.38-.59-.08-.26-.13-.56-.15-.89ZM59.63,13.01c0-.12.06-.24.18-.34.12-.11.28-.17.5-.18.17-.02.34,0,.5.06.16.06.24.16.24.31v.4c0,.16-.07.3-.2.4-.13.1-.29.16-.47.18-.16.01-.32-.02-.47-.08-.15-.07-.24-.19-.26-.37v-.37ZM61.71,31.31c-.01-.09-.02-.18-.04-.27s-.02-.18-.02-.27c0-.2.06-.38.19-.53.13-.15.36-.26.69-.32.31-.06.56-.06.75,0,.19.06.31.2.35.44.02.07.04.15.05.24s.03.17.04.25c.05.25.01.48-.12.66-.13.19-.37.32-.7.4-.38.07-.66.07-.84,0-.18-.08-.3-.27-.35-.57Z" fill="#1b2470" stroke-width="0"/>
  <path d="M69.19,21.81c-.8-.02-1.43-.06-1.89-.11-.45-.06-.77-.17-.95-.33-.18-.16-.27-.4-.27-.72,0-.56.25-.9.76-1.02.5-.12,1.41-.11,2.73.03l-.37,2.15ZM71.27,33.63c-.98.04-1.7-.22-2.15-.79s-.69-1.45-.69-2.64c0-.5.02-1.15.05-1.95.03-.8.07-1.69.11-2.68.05-.99.1-2.02.16-3.09s.12-2.13.19-3.19.13-2.04.2-2.96c.07-.92.12-1.72.18-2.41.09-1.19.41-2.04.95-2.54s1.28-.76,2.19-.76c.78,0,1.44.16,1.96.48.52.32.86.84,1.01,1.57.15.72.04,1.68-.31,2.87-.35,1.14-.71,2.29-1.08,3.44-.38,1.15-.76,2.29-1.15,3.41-.06.15-.11.31-.16.46s-.09.31-.14.46c-.04.15-.09.31-.14.46-.06.15-.11.31-.16.46-.07.25-.15.51-.24.77-.09.26-.17.52-.25.79-.04.11-.08.22-.11.34s-.07.22-.11.33-.07.21-.11.31c-.03.09-.06.18-.08.27l-.08.27c-.03.09-.05.18-.08.27-.04.16-.09.33-.14.51-.06.18-.11.35-.16.53-.12.43-.12.74,0,.95.13.2.33.31.6.31.21,0,.57-.14,1.08-.43s1.09-.62,1.76-.99c.67-.38,1.36-.71,2.08-.99.72-.29,1.39-.43,2.02-.43.42,0,.84.09,1.28.28.44.19.81.51,1.11.96.3.45.45,1.08.45,1.87,0,1.01-.19,1.74-.56,2.21-.38.46-.99.7-1.85.7h-.34c.07-.98.08-1.73.02-2.25-.06-.52-.17-.88-.34-1.07-.16-.19-.36-.29-.6-.29-.27,0-.47.11-.61.32-.14.21-.23.6-.27,1.15-.04.55-.03,1.32.02,2.32-.28.03-.58.06-.89.08-.31.03-.61.05-.92.07-.04-.75-.11-1.33-.21-1.72-.1-.39-.24-.66-.4-.79-.17-.14-.37-.21-.6-.21-.27,0-.49.1-.64.3s-.23.51-.24.93c-.01.42.06.97.21,1.64-.31,0-.61.02-.9.04-.29.01-.6.03-.9.05ZM70.81,20.49l.03-1.96c.24,0,.44.03.59.08.15.05.25.15.32.3.07.15.1.36.1.63,0,.4-.09.65-.28.77-.18.12-.44.18-.76.18ZM72.31,15.57c.49,0,.86-.12,1.1-.35.24-.23.37-.56.37-.96,0-.52-.13-.9-.38-1.14-.25-.24-.63-.36-1.12-.36-.4,0-.72.13-.95.4-.24.27-.36.61-.36,1.04s.11.74.33.99c.22.25.56.38,1.02.38ZM73.1,19.39l.12-2.54c1.47.02,2.55.07,3.26.14s1.17.2,1.39.38.33.43.33.76c0,.4-.11.69-.34.88-.23.19-.71.31-1.44.35-.73.05-1.84.05-3.32.02ZM80.62,31.62l-1.74-.49c.09-.31.18-.56.26-.76.08-.2.2-.34.34-.41s.36-.07.65.01c.25.06.43.16.54.3.1.14.14.32.13.54-.02.22-.07.49-.18.81Z" fill="#1b2470" stroke-width="0"/>
  <path d="M84.96,25.75c-1.01.01-1.79-.02-2.35-.08-.56-.06-.95-.18-1.17-.36-.22-.18-.33-.44-.33-.79,0-.55.28-.89.84-1.02s1.6-.15,3.13-.05l-.12,2.29ZM86.09,33.33c-.84-.02-1.44-.23-1.83-.62-.38-.39-.57-1.02-.57-1.89,0-.26.03-.79.08-1.57.05-.78.12-1.72.2-2.81.08-1.09.17-2.27.27-3.51s.2-2.48.3-3.7c.1-1.22.2-2.34.29-3.35s.17-1.84.23-2.48c.06-.63.2-1.1.41-1.42.21-.32.56-.47,1.02-.47.34,0,.61.08.81.25s.35.4.43.71c.08.31.11.67.08,1.08-.08,1.13-.18,2.3-.28,3.5s-.21,2.36-.31,3.48c-.01.15-.02.31-.04.46-.01.15-.03.3-.05.44-.01.15-.02.31-.03.46-.01.15-.03.3-.05.44-.02.23-.04.47-.06.7s-.04.45-.06.66c0,.1,0,.21-.02.31s-.02.21-.03.31c-.01.1-.02.2-.03.3-.01.1-.02.21-.03.31s-.02.21-.02.31-.01.2-.02.3c-.01.25-.02.49-.04.71-.02.22-.03.42-.05.6-.02.29.04.48.18.6.14.11.36.17.68.17.2,0,.5-.03.9-.08.4-.05.85-.11,1.35-.18s1.02-.13,1.54-.18c.52-.05,1.01-.08,1.44-.08.5,0,.98.08,1.43.23s.83.46,1.12.92c.29.46.44,1.16.44,2.09,0,1.01-.2,1.74-.6,2.2-.4.46-1.04.7-1.94.73h-.21c.11-1.09.15-1.9.12-2.44-.03-.54-.12-.9-.26-1.08-.14-.18-.33-.27-.57-.27-.27,0-.48.1-.63.29-.16.19-.27.57-.33,1.12s-.08,1.35-.05,2.41c-.32.01-.64.02-.96.02s-.66,0-.99,0c.07-.84.08-1.46.02-1.88-.06-.42-.16-.7-.32-.84s-.35-.21-.59-.21c-.28,0-.49.09-.66.26-.16.17-.27.47-.33.9-.06.43-.06,1.02-.02,1.77h-1.34ZM86.64,17.59l-.06-2.17c1.31-.1,2.32-.16,3.02-.16.7,0,1.17.07,1.43.23.25.16.38.43.38.82,0,.32-.12.56-.37.73-.25.17-.71.29-1.4.37s-1.69.14-3,.18ZM86.88,21.26l.12-2.23c1.02.02,1.79.06,2.31.13.52.07.87.18,1.05.34.18.16.28.38.28.66,0,.5-.25.82-.76.95-.5.13-1.5.18-3,.15ZM95.41,31.77l-1.8-.34c0-.22.04-.42.11-.6.07-.17.19-.31.34-.41.16-.1.36-.15.62-.15.29,0,.5.07.62.22s.18.34.18.57-.02.47-.06.71Z" fill="#1b2470" stroke-width="0"/>
  <path d="M95.17,17.56c-.37-.49-.63-.97-.79-1.46-.16-.48-.24-.94-.24-1.37,0-.75.16-1.4.47-1.93.32-.53.74-.93,1.28-1.21.53-.28,1.12-.42,1.76-.42.78,0,1.43.19,1.93.57.5.38.97.95,1.38,1.72.41.74.8,1.53,1.18,2.37.38.84.77,1.63,1.19,2.38.12.21.25.38.37.5.13.12.27.18.42.18.17,0,.35-.06.53-.17.18-.11.33-.29.47-.53.53-.91,1.06-1.88,1.59-2.93.53-1.04,1.05-2,1.56-2.86.22-.38.46-.67.71-.89s.54-.33.88-.33c.21,0,.4.05.55.14.15.09.27.22.35.39.08.17.12.37.12.6,0,.18-.03.38-.08.6-.06.22-.15.45-.28.68-.34.62-.65,1.19-.95,1.7-.3.51-.58,1.01-.86,1.47-.07.11-.14.22-.2.34-.06.11-.13.22-.2.34-.05.08-.1.17-.15.25s-.1.17-.15.25c-.05.08-.1.17-.15.26-.1.16-.2.33-.3.49-.1.16-.2.33-.3.5-.06.1-.12.21-.18.31s-.13.22-.2.33c-.08.14-.17.29-.26.44-.09.15-.18.31-.27.47-.16.26-.33.54-.5.84-.17.3-.34.61-.51.93-.18.34-.35.69-.51,1.05-.16.36-.28.74-.37,1.14-.09.4-.12.83-.1,1.28.06,1.02.16,2,.28,2.93.13.94.23,1.92.3,2.93.05.74-.06,1.33-.33,1.75-.27.42-.78.63-1.54.63-.67,0-1.16-.22-1.46-.65-.3-.43-.45-1.02-.44-1.76.02-.69.08-1.41.17-2.14.09-.73.13-1.44.12-2.12-.01-.51-.09-1-.24-1.48-.15-.48-.45-1.05-.89-1.71-.8-1.17-1.66-2.32-2.55-3.44-.9-1.12-1.77-2.25-2.61-3.38ZM95.84,14.02s-.08.06-.12.09c-.04.03-.08.06-.13.09-.12.09-.24.1-.36.04-.12-.07-.2-.16-.25-.28-.04-.09-.06-.18-.05-.27s.05-.15.15-.19c.03-.02.07-.04.11-.07.04-.03.08-.04.11-.05.09-.05.18-.06.27-.04.09.03.16.08.22.16.08.07.13.16.15.27s-.01.19-.09.25ZM97.85,16.42c.46,0,.8-.13,1.03-.4.23-.26.34-.61.34-1.04s-.12-.74-.35-.97c-.23-.23-.64-.34-1.21-.34-.4,0-.7.14-.89.43s-.3.64-.3,1.07c0,.38.12.68.37.91.24.23.58.34,1.01.34ZM98.19,12.49s-.07.02-.11.04c-.04.02-.08.03-.11.05-.12.06-.24.05-.35-.03-.11-.08-.2-.17-.26-.27-.06-.12-.09-.24-.08-.37,0-.12.08-.2.2-.24.05-.02.1-.04.14-.07.05-.03.09-.04.13-.05.12-.06.24-.05.35.03.11.08.2.18.26.31.05.1.07.21.05.34-.02.12-.09.21-.24.27ZM100.02,19.75c.34,0,.61-.1.82-.31.21-.21.31-.47.31-.79,0-.48-.12-.84-.36-1.09-.24-.25-.57-.37-.99-.37-.38,0-.68.11-.89.33-.22.22-.33.59-.33,1.11,0,.34.13.61.39.82.26.21.61.31,1.05.31ZM102.27,22.71c.31,0,.56-.09.78-.27s.32-.42.32-.7c0-.42-.1-.74-.31-.95s-.43-.33-.67-.33c-.43,0-.75.11-.96.32-.21.21-.32.48-.32.81,0,.38.1.66.31.85.2.19.49.28.86.28ZM107.91,19.24c-.44-.26-.88-.53-1.31-.81-.44-.27-.87-.56-1.28-.84-.58-.4-.97-.72-1.16-.96-.19-.24-.21-.52-.06-.84.17-.36.45-.51.83-.47.38.05.82.2,1.34.47.52.25,1.04.52,1.56.79.52.27,1.04.56,1.56.86.47.25.81.56,1.02.91.21.35.22.71.02,1.06-.21.38-.56.51-1.04.41s-.97-.3-1.47-.58ZM110.18,16.03c-.65-.32-1.27-.64-1.86-.96-.58-.33-1.14-.67-1.67-1.02-.62-.42-1.06-.81-1.33-1.18-.27-.37-.29-.74-.06-1.12.23-.36.58-.48,1.05-.37s.97.32,1.5.65c.54.33,1.09.67,1.67,1.02.57.36,1.16.75,1.77,1.18.36.24.6.5.73.76.13.27.1.56-.11.89-.18.32-.42.46-.71.44-.29-.02-.62-.12-.99-.29Z" fill="#1b2470" stroke-width="0"/>
  <path d="M12.9,60.91c.11-1.35.24-2.86.38-4.51.14-1.65.28-3.33.42-5.03.01-.1.02-.2.03-.31.01-.1.02-.2.03-.31l.03-.31c.01-.12.02-.24.03-.36s.02-.24.03-.36c.01-.12.02-.24.03-.35.02-.19.04-.38.05-.57s.03-.38.05-.57c.02-.17.04-.35.05-.52.02-.17.03-.34.04-.5.02-.18.04-.36.05-.54.02-.18.03-.35.04-.51.02-.12.04-.24.05-.37.01-.12.02-.24.03-.35.08-.81.31-1.41.68-1.79s.95-.68,1.73-.9c.46-.13,1.01-.27,1.64-.41.64-.14,1.29-.28,1.97-.4.68-.13,1.3-.23,1.86-.31s.99-.11,1.3-.11c.9,0,1.55.28,1.97.85.42.57.63,1.32.63,2.25,0,.79-.12,1.53-.37,2.2s-.61,1.18-1.09,1.54c-.48.35-1.06.44-1.76.27.21-.78.39-1.49.54-2.11.15-.62.18-1.11.1-1.47-.08-.36-.36-.54-.84-.54-.44,0-.74.3-.92.89-.17.59-.37,1.55-.6,2.87-.28-.08-.53-.15-.76-.21-.23-.06-.5-.12-.79-.19.09-1.31.1-2.2.02-2.67-.08-.46-.34-.7-.79-.7-.28,0-.5.08-.64.25-.14.17-.24.46-.28.86-.05.41-.06.96-.05,1.67-.09-.03-.18-.05-.28-.07-.09-.02-.18-.02-.27-.02-.25,0-.44.07-.56.21-.12.14-.19.35-.21.61-.06,1.04-.1,2.09-.12,3.14s-.03,2.09-.03,3.09c0,.29.1.49.31.63.21.13.51.14.91.01.92-.29,1.72-.54,2.41-.75.69-.2,1.21-.35,1.56-.44.49-.12.88-.04,1.16.24.28.29.43.62.43,1.01,0,.26-.08.52-.24.76-.16.24-.43.4-.79.5-.13.03-.27.06-.4.1-.14.04-.28.07-.42.1-.08.02-.16.04-.24.06s-.16.04-.24.06c-.07.01-.14.02-.2.04-.06.02-.12.03-.18.05-.1.02-.2.04-.29.07s-.19.05-.29.07c-.04.01-.08.02-.13.03s-.09.02-.14.03c-.05.01-.09.02-.15.03-.05.01-.1.02-.14.03s-.09.02-.14.04-.1.03-.15.04c-.14.03-.28.06-.42.1-.14.04-.27.07-.39.1-.34.08-.55.2-.63.35-.09.15-.11.35-.07.6.05.29.13.65.23,1.11.1.45.22.85.35,1.18.11.27.25.44.41.5.16.06.37.05.63-.05.67-.26,1.42-.56,2.25-.87.83-.32,1.5-.53,2.02-.66.62-.14,1.09-.03,1.41.34.32.37.47.79.47,1.25,0,.35-.09.66-.26.95-.17.29-.44.46-.79.52-1.25.21-2.64.42-4.17.62-1.53.2-3.02.34-4.48.42-.87.04-1.53-.14-2-.53-.47-.4-.67-1.05-.6-1.97ZM16.05,45.08l-.15,1.22c-.25-.03-.44-.1-.57-.21s-.18-.28-.17-.49c.02-.24.12-.39.29-.44.17-.05.37-.08.6-.08ZM19.26,52.41c-.53,0-.92-.11-1.18-.34-.25-.22-.38-.64-.38-1.25,0-.3.13-.57.38-.83.25-.26.56-.39.93-.39.52,0,.9.12,1.14.35.24.23.36.6.36,1.08s-.12.82-.35,1.04c-.23.22-.53.34-.9.34ZM18.4,61.21l1.99-.06c.06.32.08.59.05.83-.03.24-.1.43-.24.58-.13.15-.33.24-.58.27-.29.04-.51,0-.69-.14-.17-.13-.3-.33-.38-.59s-.13-.56-.15-.89ZM19.81,43.09c0-.12.06-.24.18-.34.12-.11.28-.17.5-.18.17-.02.34,0,.5.06.16.06.24.16.24.31v.4c0,.16-.07.3-.2.4-.13.1-.29.16-.47.18-.16.01-.32-.02-.47-.08-.15-.07-.24-.19-.26-.37v-.37ZM21.88,61.39c-.01-.09-.02-.18-.04-.27-.02-.09-.02-.18-.02-.27,0-.2.06-.38.19-.53.13-.15.36-.26.7-.32.31-.06.55-.06.75,0,.19.06.31.2.35.44.02.07.04.15.05.24s.03.17.04.25c.05.25.01.48-.12.66-.13.19-.37.32-.7.4-.38.07-.66.07-.84,0-.18-.08-.3-.27-.35-.57Z" fill="#1b2470" stroke-width="0"/>
  <path d="M27.31,60.05c.14-.4.39-1.07.73-2.02s.74-2.05,1.19-3.28c.45-1.24.9-2.47,1.34-3.7.04-.09.08-.18.11-.27.03-.09.06-.18.09-.27.03-.09.06-.18.09-.27.05-.12.1-.25.14-.37.05-.13.09-.25.13-.37.12-.33.24-.64.35-.95.11-.31.22-.61.32-.89.04-.09.08-.18.11-.27.03-.09.06-.17.09-.26s.06-.17.09-.25c.05-.15.1-.3.16-.44.06-.14.1-.27.14-.4.16-.43.29-.77.39-1.03s.15-.41.16-.45c.33-.85.81-1.47,1.47-1.89.65-.41,1.39-.61,2.23-.59.88.01,1.63.24,2.26.69.63.45,1.03,1.13,1.19,2.03.02.12.04.24.07.37.03.12.04.24.05.37-1.22.12-2.05.28-2.48.48s-.64.48-.64.83c0,.44.15.72.45.85.3.13.71.16,1.24.1.52-.06,1.12-.15,1.8-.27.06.31.12.61.18.92s.11.61.15.92c-.95.12-1.61.28-1.99.47s-.57.48-.57.87c0,.45.15.73.44.86.3.12.67.15,1.12.08.45-.07.91-.17,1.38-.3.2,1.02.4,2.04.6,3.06.19,1.02.38,2.03.57,3.04.18,1.01.37,2.01.55,3.02.18,1,.36,2,.52,2.99.11.56.05,1-.18,1.31s-.52.47-.86.47c-.26,0-.51-.1-.78-.29-.27-.19-.47-.49-.63-.9-.83-2.28-1.64-4.64-2.46-7.07-.82-2.43-1.61-4.73-2.4-6.9-.21-.6-.42-1.04-.63-1.31-.21-.27-.5-.4-.86-.4-.35,0-.63.12-.86.37-.23.24-.43.7-.6,1.38-.47,1.81-.93,3.66-1.39,5.53-.46,1.87-.91,3.68-1.36,5.41-.15.56-.39.97-.72,1.21s-.67.37-1.02.37c-.65,0-1.12-.25-1.41-.74-.28-.49-.31-1.09-.06-1.8ZM30.61,52.5c-.8-.22-1.44-.42-1.92-.6-.47-.17-.81-.35-1.02-.53s-.31-.38-.31-.62c0-.49.17-.79.52-.89s.81-.09,1.38.05c.57.14,1.2.33,1.89.57l-.55,2.02ZM31.68,48.96c-.68-.29-1.23-.54-1.64-.76-.41-.22-.71-.43-.89-.63-.18-.2-.28-.42-.28-.66,0-.48.17-.77.52-.88s.8-.09,1.37.06c.57.15,1.16.36,1.8.63l-.87,2.23ZM30.7,59.32c-.47-.06-.84-.19-1.13-.38s-.43-.44-.43-.75c0-.48.19-.78.56-.9.37-.12.82-.16,1.34-.11,1.33.1,2.73.22,4.19.36,1.46.14,2.92.28,4.36.44l.61,2.32c-1.71-.15-3.38-.31-5-.48-1.62-.17-3.12-.33-4.5-.5ZM30.39,55.37l.58-1.93c.48-.02.95-.03,1.41-.03s.93.01,1.4.03c.7.03,1.23.12,1.58.26s.53.44.53.9-.15.74-.46.89c-.31.16-.9.22-1.77.18-.55-.03-1.1-.07-1.64-.13-.55-.06-1.09-.11-1.63-.18ZM39.19,55.53l-.46-2.29c.52-.09.94-.14,1.26-.13.32,0,.55.12.69.34s.21.6.21,1.14c0,.38-.14.62-.43.72-.28.1-.71.18-1.28.23ZM40.29,60.42l-.46-2.44c.53-.11.95-.16,1.27-.14.32.02.55.15.69.4.14.24.21.65.21,1.21,0,.41-.14.66-.43.77s-.71.18-1.28.21Z" fill="#1b2470" stroke-width="0"/>
  <path d="M46.13,61.09c-.12-1.5-.23-3.31-.34-5.43-.1-2.12-.15-4.44-.15-6.94,0-.7.05-1.36.15-1.96.1-.61.25-1.16.46-1.67.05-.12.1-.24.16-.37.06-.12.11-.24.18-.35.06-.1.12-.2.18-.29.06-.09.12-.18.19-.27.09-.14.19-.28.31-.4.11-.12.22-.24.34-.35.09-.09.19-.18.29-.27.1-.09.21-.17.32-.24.11-.08.23-.16.35-.24.12-.08.25-.15.38-.22.6-.32,1.27-.55,2.01-.7s1.56-.23,2.45-.23c1.09,0,2.1.14,3.02.4.92.27,1.72.68,2.4,1.23.68.55,1.2,1.25,1.57,2.09.37.85.56,1.84.56,2.99,0,1.31-.27,2.4-.82,3.25-.55.86-1.27,1.5-2.16,1.92-.9.42-1.87.63-2.92.63s-1.97-.18-2.72-.53c-.75-.35-1.33-.86-1.73-1.51-.4-.66-.6-1.44-.6-2.36,0-1.25.34-2.21,1.01-2.88.67-.67,1.55-1,2.63-1s1.83.27,2.31.82c.48.55.72,1.17.72,1.86,0,.47-.1.8-.3.99-.2.19-.47.29-.8.29s-.57-.1-.72-.3c-.14-.2-.26-.43-.34-.68s-.2-.48-.35-.68-.4-.3-.76-.3c-.4,0-.69.14-.88.43-.19.29-.28.65-.28,1.1,0,.87.28,1.52.83,1.95.56.43,1.24.65,2.04.65,1.04,0,1.88-.29,2.54-.87.65-.58.98-1.48.98-2.7,0-1.55-.49-2.7-1.46-3.47s-2.19-1.15-3.64-1.15-2.59.25-3.44.76c-.84.51-1.42,1.26-1.73,2.25-.31.99-.38,2.19-.21,3.62.14,1.17.27,2.09.37,2.76.11.67.22,1.15.34,1.46.12.31.25.5.41.6.16.09.35.16.59.2.49.07.98.14,1.48.21.5.07.98.13,1.45.19-.21.99-.26,1.69-.14,2.12.12.42.4.63.84.63.34,0,.6-.17.8-.5s.35-.96.45-1.89c.36.03.71.07,1.05.13.34.06.67.11.97.18-.37,1.72-.51,2.92-.43,3.6.08.68.4,1.02.99,1.02.23,0,.45-.11.63-.34.19-.22.35-.64.5-1.26.14-.62.26-1.51.37-2.68.57.11,1.05.28,1.44.51.39.23.7.5.95.81s.42.65.53,1.02.16.75.16,1.15c0,1.32-.31,2.39-.94,3.19-.63.8-1.58,1.2-2.85,1.2-.53,0-1.05-.1-1.55-.31-.5-.21-1.01-.5-1.52-.89-.51-.38-1.02-.83-1.54-1.34-.52-.51-1.05-1.08-1.6-1.71-.54-.63-1.12-1.28-1.72-1.96-.25-.29-.49-.41-.7-.34-.21.07-.31.25-.27.55.06.53.14,1.05.24,1.57.1.52.18,1.03.25,1.54.09.76.02,1.33-.21,1.69-.23.36-.73.54-1.5.54-.65,0-1.1-.21-1.34-.63-.25-.42-.41-1.05-.49-1.87ZM47.02,60.02c-.21,0-.37-.09-.48-.27-.11-.18-.16-.36-.16-.56,0-.23.06-.45.18-.63.12-.19.31-.28.55-.28l-.09,1.74ZM47.41,62.62c-.22.01-.4-.07-.52-.24-.12-.17-.18-.36-.18-.55,0-.18.05-.35.15-.5.1-.15.26-.23.49-.24l.06,1.53ZM59.85,62.22c-.25,0-.46-.07-.6-.21-.15-.14-.22-.33-.22-.55,0-.36.07-.61.22-.77s.33-.24.54-.24c.36,0,.61.07.77.22.16.15.24.33.24.54,0,.32-.08.56-.25.74-.17.18-.4.27-.7.27Z" fill="#1b2470" stroke-width="0"/>
  <path d="M64.23,60.72c-.01-.19-.02-.41-.02-.65,0-.24,0-.49,0-.74s.01-.49.02-.72c1.65.13,2.76.1,3.33-.08.57-.19.86-.5.86-.92,0-.55-.28-.89-.84-1.02-.56-.13-1.65-.14-3.26-.02.02-.36.04-.71.05-1.06s.04-.7.07-1.05c.71.07,1.3.09,1.76.07.46-.03.8-.12,1.02-.29s.34-.43.34-.79c0-.45-.23-.75-.67-.91-.45-.16-1.23-.25-2.35-.28.05-1.13.13-2.34.22-3.62.1-1.28.21-2.48.33-3.59.15-1.37.55-2.37,1.18-2.97.63-.61,1.45-.91,2.46-.91.92,0,1.63.24,2.15.72s.96,1.25,1.34,2.31c.34.93.69,1.95,1.05,3.06.37,1.12.74,2.27,1.12,3.48.38,1.2.76,2.39,1.15,3.57.38,1.18.76,2.29,1.14,3.34.13.38.33.61.58.69.25.08.48.03.69-.14s.3-.47.29-.88c-.02-1.46-.05-3.06-.09-4.82-.04-1.76-.07-3.55-.1-5.38-.03-1.83-.03-3.58-.02-5.26,0-.64.13-1.12.38-1.44.25-.32.63-.48,1.15-.48.49,0,.85.17,1.09.52s.35.87.35,1.56c-.01,1.68-.04,3.43-.1,5.24-.06,1.81-.13,3.65-.23,5.52-.1,1.87-.21,3.73-.34,5.58-.07,1.07-.36,1.82-.88,2.24-.51.42-1.15.63-1.9.63s-1.35-.21-1.81-.62c-.46-.41-.85-1-1.15-1.76-.57-1.41-1.12-2.85-1.66-4.32-.53-1.48-1.06-2.94-1.59-4.38-.52-1.45-1.05-2.83-1.58-4.16-.07-.18-.16-.32-.25-.4-.1-.08-.22-.12-.36-.12-.21,0-.38.09-.51.27s-.16.44-.1.77c.22,1.4.48,2.82.76,4.26.29,1.45.57,2.9.86,4.37s.55,2.93.79,4.38c.21,1.38.02,2.44-.57,3.19-.6.75-1.54,1.12-2.82,1.12-1.14,0-1.97-.28-2.48-.85-.51-.57-.79-1.31-.82-2.24ZM67.05,59.32h.76c.27,0,.48.11.62.32.14.21.21.45.21.72,0,.31-.08.58-.24.81s-.41.36-.73.38h-.79c-.31,0-.53-.12-.69-.36-.15-.24-.23-.5-.23-.77,0-.33.08-.59.25-.79.17-.2.45-.31.85-.31ZM68.11,61.24c-.32,0-.56-.09-.72-.26-.17-.17-.25-.43-.25-.78,0-.26.09-.48.28-.64.19-.16.44-.24.76-.24.26,0,.48.08.64.24.16.16.24.38.24.68,0,.34-.09.59-.27.76-.18.17-.4.25-.68.25ZM78.23,43.64c.39.01.78.03,1.17.05s.78.05,1.15.07c.83.04,1.44.1,1.83.18.38.08.63.19.73.34.11.14.16.33.16.55s-.06.41-.18.56c-.12.15-.37.26-.77.34-.4.08-1.01.11-1.83.11h-2.35c-.79,0-1.4-.05-1.82-.14s-.7-.24-.86-.42-.23-.4-.23-.66.08-.45.24-.6c.16-.16.45-.27.89-.34s1.06-.08,1.87-.04ZM78.11,47.8c.4,0,.8,0,1.21-.02s.81-.02,1.21-.02c.95-.02,1.55.05,1.81.21.26.16.39.42.39.77,0,.43-.13.73-.38.92s-.84.27-1.76.27h-2.23c-1.11,0-1.86-.07-2.24-.21-.38-.14-.57-.43-.57-.86,0-.34.17-.6.5-.78s1.02-.28,2.07-.29ZM79.21,50.67h.18c.16,0,.29.05.4.15.1.1.18.23.23.39.05.16.08.32.08.5s-.03.34-.09.5c-.06.16-.15.3-.26.4-.11.11-.25.16-.41.16h-.24c-.22,0-.39-.1-.5-.31-.11-.2-.17-.43-.17-.67,0-.27.07-.53.21-.77.14-.24.33-.36.59-.36Z" fill="#1b2470" stroke-width="0"/>
  <path d="M83.68,60.02c0-.92.25-1.6.76-2.06.5-.45,1.13-.68,1.87-.7.28,0,.51,0,.72,0s.4-.01.6-.02c.26-.02.45-.12.54-.3s.15-.46.16-.83c.01-.15.02-.32.02-.5s0-.38,0-.58c.01-.13.02-.27.02-.4v-.4c.01-.13.02-.26.02-.4v-4.06c0-.88,0-1.73,0-2.56,0-.83-.01-1.43-.02-1.81-.01-.33-.08-.55-.21-.67s-.34-.18-.65-.18c-.25,0-.55.02-.9.05-.35.03-.7.05-1.05.05-.62,0-1.11-.13-1.47-.39s-.54-.67-.54-1.23c.02-.57.2-.97.54-1.2.34-.23.82-.36,1.44-.39,1.4-.06,2.79-.09,4.18-.1,1.39,0,2.72.02,3.98.07.73.03,1.26.12,1.57.27s.47.44.47.86-.14.68-.44.86c-.29.17-.69.31-1.21.4-.52.1-1,.18-1.44.22-.44.05-.87.11-1.28.21-.27.06-.48.15-.6.27-.13.12-.19.32-.19.62.05,1.81.12,3.63.2,5.46.08,1.83.19,3.65.32,5.48.03.46.14.8.33,1.02s.5.34.93.36c.21.01.43.02.66.02.22,0,.44.02.66.04,1.12.06,1.97.37,2.55.92s.86,1.28.84,2.2c0,.77-.16,1.4-.47,1.89-.31.48-.75.83-1.32,1.03s-1.24.27-2,.2c-.04,0-.08,0-.11-.02s-.08-.01-.13-.01c.22-1.16.36-2.04.4-2.64.05-.6-.01-1.01-.17-1.22-.16-.21-.43-.32-.82-.32-.23,0-.42.1-.55.3-.13.2-.24.59-.32,1.16-.08.58-.16,1.42-.23,2.54-.27-.03-.55-.06-.82-.1-.28-.04-.56-.07-.86-.11,0-.89-.05-1.55-.14-1.99-.09-.44-.22-.74-.38-.88-.16-.14-.36-.21-.58-.21s-.41.07-.57.21c-.15.14-.25.42-.3.82-.05.4-.02,1,.07,1.78-.25-.03-.49-.07-.73-.11-.24-.05-.49-.09-.73-.13-.77-.14-1.4-.42-1.88-.84-.48-.42-.72-1.04-.72-1.88ZM92.82,54c-1.07,0-2.13-.03-3.19-.08-1.05-.06-2.1-.13-3.14-.22-.52-.05-.94-.16-1.26-.31-.32-.16-.48-.45-.48-.88,0-.54.19-.87.58-.98s.88-.15,1.47-.12c.98.04,2.04.11,3.2.21s2.14.19,2.94.27c.6.06,1.05.17,1.34.31.29.15.44.42.44.82s-.16.67-.47.79c-.32.12-.79.18-1.42.18ZM92.09,48.99c-.76.15-1.52.29-2.28.41s-1.51.23-2.28.32c-.5.06-.92.03-1.26-.09-.34-.12-.51-.42-.51-.89,0-.34.13-.59.4-.77.26-.18.61-.32,1.04-.42.72-.18,1.45-.35,2.18-.49.73-.14,1.45-.27,2.16-.4.76-.12,1.35-.13,1.75-.02.4.11.6.44.6.99,0,.41-.16.71-.47.89-.31.19-.76.34-1.34.45ZM86.92,47.98c.23,0,.41.06.53.19.12.13.18.28.18.45,0,.32-.07.54-.21.68-.14.14-.31.21-.53.21-.27,0-.48-.07-.6-.21-.13-.14-.19-.33-.19-.55,0-.24.07-.43.21-.57.14-.13.34-.2.62-.2Z" fill="#1b2470" stroke-width="0"/>
  <path d="M101.48,46.02l-.58,2.26c-1.1-.14-1.84-.3-2.22-.47s-.57-.47-.57-.9c0-.6.29-.93.88-1,.58-.07,1.41-.03,2.48.11ZM99.24,60.87c.05-.72.12-1.65.22-2.79.1-1.14.2-2.34.31-3.61.01-.11.02-.22.03-.33s.02-.21.03-.32c.01-.11.02-.21.03-.31.01-.12.02-.24.03-.37.01-.12.02-.24.03-.37,0-.12.02-.24.03-.37.02-.18.04-.37.05-.56.02-.19.03-.37.04-.56.02-.18.04-.37.05-.55s.03-.36.04-.53c.02-.16.04-.32.05-.48.02-.16.03-.31.04-.47.1-1.05.19-1.99.27-2.83.08-.84.13-1.48.18-1.93.09-.95.32-1.59.69-1.94.37-.35.97-.57,1.81-.66.35-.03.82-.06,1.43-.09.61-.03,1.26-.06,1.97-.08.71-.02,1.39-.04,2.06-.05.67-.02,1.23-.02,1.69-.02.72,0,1.27.1,1.64.29.37.19.55.51.53.96-.01.29-.08.51-.22.67-.14.16-.4.28-.77.36-.38.08-.93.14-1.67.19-.06,0-.14,0-.22,0-.09,0-.18.01-.28.02s-.2.01-.31.02c-.13.01-.27.02-.41.02-.14,0-.29.01-.44.02-.22.01-.46.02-.7.04-.24.02-.48.03-.72.04-.14.01-.28.02-.42.03s-.28.02-.42.03c-.09,0-.19,0-.28,0-.1,0-.19.01-.27.01-.09,0-.18.01-.27.02-.21.01-.41.02-.59.03-.18.01-.33.02-.47.03-.37.03-.58.15-.64.37-.06.21-.13.56-.21,1.04-.04.31-.08.63-.13.97-.05.34-.08.69-.11,1.05-.04.44.05.74.27.92.22.17.68.27,1.38.31.31.01.82.04,1.54.08.72.04,1.52.08,2.41.11.96.03,1.65.3,2.07.82.42.51.63,1.07.63,1.67,0,.56-.16,1.07-.49,1.54-.33.46-.78.73-1.36.8-.1.01-.18.02-.23.02-.05,0-.11,0-.17,0,.03-1.04-.03-1.73-.18-2.08s-.38-.52-.67-.52c-.38,0-.63.19-.75.57-.12.38-.15,1.13-.08,2.25-.24.03-.51.06-.8.09s-.58.06-.88.09c.03-.91.02-1.59-.05-2.05-.06-.46-.16-.77-.31-.92-.14-.16-.32-.24-.54-.24-.32,0-.55.09-.7.26-.15.17-.25.5-.29.97-.04.47-.05,1.16-.02,2.07-.13.01-.26.02-.38.04-.12.01-.23.03-.32.05-.25.04-.45.16-.58.34-.13.19-.21.49-.24.91-.03.49-.08,1.06-.13,1.71s-.08,1.31-.08,1.99c0,.31.1.53.31.69s.49.23.86.23c1.27,0,2.5,0,3.67-.02s2.4-.02,3.66-.02c.5,0,.87.15,1.1.44.23.3.35.62.35.98,0,.38-.12.72-.37,1.04-.24.32-.61.46-1.08.44-1.63-.08-3.27-.19-4.93-.31-1.66-.13-3.31-.27-4.97-.42-.49-.05-.85-.23-1.07-.53-.23-.31-.32-.75-.28-1.33ZM105.41,61.7l1.93.4c-.14,1.13-.27,2.02-.4,2.66-.12.64-.28,1.1-.47,1.37-.19.27-.45.4-.79.4-.49,0-.8-.2-.93-.61-.13-.41-.13-.97,0-1.7.13-.72.35-1.56.64-2.52ZM105.1,40.4c-.06-.46-.01-.84.15-1.14.16-.3.46-.45.89-.45.34,0,.6.1.79.31.19.2.33.52.4.95.17.9.34,1.81.5,2.73s.32,1.86.47,2.8c.11.61.07,1.06-.12,1.36-.19.3-.53.44-1.01.44-.32,0-.58-.11-.78-.34-.2-.22-.35-.6-.44-1.13-.16-.92-.32-1.84-.47-2.77-.15-.93-.28-1.85-.39-2.77ZM107.27,59.22c-.53,0-.96-.17-1.28-.5-.33-.33-.49-.75-.49-1.25s.13-.9.4-1.18c.27-.28.69-.41,1.28-.41.52,0,.92.16,1.21.47s.44.77.44,1.37c0,.44-.15.8-.44,1.08-.29.28-.67.42-1.12.42ZM108.25,62.25v-.55c0-.21.12-.38.36-.51.24-.13.5-.19.77-.19.23,0,.45.05.64.15.19.1.3.25.31.47v.61c.02.24-.09.44-.33.58-.24.14-.5.21-.77.21-.24,0-.47-.06-.67-.19-.2-.13-.31-.32-.31-.57Z" fill="#1b2470" stroke-width="0"/>
</svg>